<?xml version="1.0" encoding="utf-8"?>
<!-- Generator: Adobe Illustrator 16.0.3, SVG Export Plug-In . SVG Version: 6.00 Build 0)  -->
<!DOCTYPE svg PUBLIC "-//W3C//DTD SVG 1.1//EN" "http://www.w3.org/Graphics/SVG/1.1/DTD/svg11.dtd">
<svg version="1.1" id="Camada_1" xmlns="http://www.w3.org/2000/svg" xmlns:xlink="http://www.w3.org/1999/xlink" x="0px" y="0px"
	 width="98.917px" height="95.167px" viewBox="0 0 98.917 95.167" enable-background="new 0 0 98.917 95.167" xml:space="preserve">
<rect x="3.75" fill="#413B3C" width="95.167" height="95.167"/>
<polyline fill="none" stroke="#FFFFFF" stroke-width="3" stroke-miterlimit="10" points="14.771,27.125 28.275,36.667 
	52.644,20.373 74.517,28.52 86.554,18.757 "/>
<polygon fill="#FFFFFF" points="91.251,24.557 87.875,24.557 87.875,21.327 84.499,21.327 84.499,17.73 80.682,17.73 80.682,14.06 
	91.251,14.06 "/>
<line fill="none" stroke="#FFFFFF" stroke-width="3" stroke-miterlimit="10" x1="8.897" y1="83.568" x2="94.995" y2="83.568"/>
<polyline fill="none" stroke="#FFFFFF" stroke-width="3" stroke-miterlimit="10" points="22.843,83.568 22.843,45.988 
	34.953,45.988 34.953,83.568 45.23,83.568 45.23,31.969 57.928,31.969 57.928,83.275 68.204,83.275 68.204,36.667 80.607,36.667 
	80.607,83.568 "/>
<line fill="#413B3C" stroke="#FFFFFF" stroke-width="5" stroke-miterlimit="10" x1="2.125" y1="0" x2="2.125" y2="95.167"/>
</svg>
